<svg xmlns="http://www.w3.org/2000/svg" viewBox="0 0 119.31 181.07"><defs><style>.cls-1{fill:#f4839d;}.cls-2{fill:#343366;}</style></defs><g id="Layer_2" data-name="Layer 2"><g id="Layer_1-2" data-name="Layer 1"><rect class="cls-1" x="19.56" width="80.18" height="128.13" rx="40.09"/><rect class="cls-2" x="19.4" y="42.2" width="80.72" height="16.11"/><path class="cls-2" d="M106.65,90.34h0a42.78,42.78,0,0,1-42.78,42.78H56.58A42.77,42.77,0,0,1,13.81,90.34h0a8.25,8.25,0,0,0-8.25-8.25H0V87c0,30.87,25.14,58.76,56,60.62A59.66,59.66,0,0,0,119.31,88v-6h-4.42A8.25,8.25,0,0,0,106.65,90.34Z"/><rect class="cls-2" x="28.77" y="166.11" width="61" height="14.96" rx="4.79"/><rect class="cls-2" x="51.4" y="138.87" width="15.34" height="29.54"/></g></g></svg>