<svg xmlns="http://www.w3.org/2000/svg" viewBox="0 0 159.5 178.67"><defs><style>.cls-1{fill:#44588d;}.cls-2{fill:#8ab7f9;}.cls-3{fill:#f4839d;}.cls-4{fill:#e5deef;}</style></defs><g id="Layer_2" data-name="Layer 2"><g id="Layer_1-2" data-name="Layer 1"><path class="cls-1" d="M126.91,142.71H113.13A28.12,28.12,0,0,1,85,114.62V28.09A15.44,15.44,0,0,0,69.62,12.67H47.36A15.44,15.44,0,0,0,31.94,28.09V49.68H19.27V28.09A28.12,28.12,0,0,1,47.36,0H69.62A28.12,28.12,0,0,1,97.71,28.09v86.53A15.44,15.44,0,0,0,113.13,130h13.78a15.43,15.43,0,0,0,15.42-15.42V99.51H155v15.11A28.12,28.12,0,0,1,126.91,142.71Z"/><rect class="cls-2" x="11.54" y="40.32" width="25.49" height="47.62" rx="2.84" transform="translate(-0.19 0.07) rotate(-0.17)"/><rect class="cls-3" x="0.16" y="60.25" width="75.52" height="118.34" rx="5.97" transform="translate(-0.35 0.11) rotate(-0.17)"/><polygon class="cls-1" points="49.6 84.02 21.55 115.85 35.74 116.53 22.82 137.01 54.01 112.63 37.89 108.59 49.6 84.02"/><rect class="cls-4" x="13.13" y="150.54" width="20.68" height="10.1" transform="translate(-0.46 0.07) rotate(-0.17)"/><rect class="cls-4" x="40.49" y="151.18" width="20.68" height="10.1" transform="translate(-0.46 0.15) rotate(-0.17)"/><path class="cls-2" d="M136.63,79.63h22.85a0,0,0,0,1,0,0v23.86A5.49,5.49,0,0,1,154,109H142.57a5.94,5.94,0,0,1-5.94-5.94V79.63a0,0,0,0,1,0,0Z" transform="translate(-0.28 0.44) rotate(-0.17)"/></g></g></svg>