<svg xmlns="http://www.w3.org/2000/svg" viewBox="0 0 116.13 181.07"><defs><style>.cls-1{fill:#e5deef;}.cls-2{fill:#c1acfc;}.cls-3{fill:#444374;}.cls-4{fill:#323c92;}</style></defs><g id="Layer_2" data-name="Layer 2"><g id="Layer_1-2" data-name="Layer 1"><rect class="cls-1" x="16.86" width="81.79" height="59.94" rx="10"/><rect class="cls-2" y="49.33" width="116.13" height="131.74" rx="10"/><rect class="cls-3" x="39.57" y="17.17" width="8.43" height="24.82" rx="2.21"/><rect class="cls-3" x="68.71" y="17.17" width="8.43" height="24.82" rx="2.21"/><path class="cls-4" d="M82.34,91.7a.42.42,0,0,0-.42-.43H70.83a.43.43,0,0,0-.43.43v22.1l-6.3,4.76V74.07H52v52.16l-5.93-5.93V99.44H33.88v23.15a6.06,6.06,0,0,0,1.76,4.52l15.1,15.1a6.09,6.09,0,0,0,1.24.93v8.43H64.1V133.13l15.92-12a5.84,5.84,0,0,0,2.3-5c0-.09,0-.19,0-.29Z"/></g></g></svg>