<svg xmlns="http://www.w3.org/2000/svg" viewBox="0 0 181.07 174.09"><defs><style>.cls-1{fill:#352f5f;}.cls-2{fill:#e5deef;}.cls-3{fill:#c5a7ff;}.cls-4{fill:#d495bf;}.cls-5{fill:#464099;}</style></defs><g id="Layer_2" data-name="Layer 2"><g id="Layer_1-2" data-name="Layer 1"><rect class="cls-1" x="12.68" y="27.49" width="144.57" height="9.07" rx="3.2" transform="translate(-5.72 36.61) rotate(-23.55)"/><rect class="cls-2" x="0.46" y="51.37" width="180.6" height="86.22" rx="6.4"/><path class="cls-3" d="M.46,113.8h180.6a0,0,0,0,1,0,0v51.41a8.89,8.89,0,0,1-8.89,8.89H9.35a8.89,8.89,0,0,1-8.89-8.89V113.8A0,0,0,0,1,.46,113.8Z"/><rect class="cls-1" x="21.38" y="73.56" width="10.46" height="26.5" rx="3.69"/><rect class="cls-1" x="40.68" y="65.2" width="10.46" height="42.3" rx="3.69"/><rect class="cls-1" x="77.4" y="65.66" width="10.46" height="42.3" rx="3.69"/><rect class="cls-1" x="114.36" y="65.66" width="10.46" height="42.3" rx="3.69"/><rect class="cls-1" x="150.85" y="66.13" width="10.46" height="42.3" rx="3.69"/><rect class="cls-1" x="57.64" y="71.94" width="10.46" height="28.82" rx="3.69"/><rect class="cls-1" x="97.16" y="72.4" width="10.46" height="28.82" rx="3.69"/><rect class="cls-1" x="132.26" y="72.87" width="10.46" height="28.82" rx="3.69"/><rect class="cls-1" y="112.15" width="181.07" height="9.3"/><circle class="cls-4" cx="34.4" cy="143.45" r="15.46"/><circle class="cls-4" cx="147.48" cy="142.71" r="15.46"/><circle class="cls-5" cx="70.08" cy="141.32" r="5.93"/><circle class="cls-5" cx="91" cy="141.32" r="5.93"/><circle class="cls-5" cx="111.92" cy="141.32" r="5.93"/></g></g></svg>