<svg xmlns="http://www.w3.org/2000/svg" viewBox="0 0 181.07 134.57"><defs><style>.cls-1{fill:#2650a8;}.cls-2{fill:#6b68ab;}.cls-3{fill:#38b3eb;}</style></defs><g id="Layer_2" data-name="Layer 2"><g id="Layer_1-2" data-name="Layer 1"><path class="cls-1" d="M18.78,115.79h26.6a0,0,0,0,1,0,0v16.1a2.68,2.68,0,0,1-2.68,2.68H21.08a2.3,2.3,0,0,1-2.3-2.3V115.79A0,0,0,0,1,18.78,115.79Z"/><path class="cls-1" d="M136,115.79h26.6a0,0,0,0,1,0,0v16.1a2.68,2.68,0,0,1-2.68,2.68H138.33a2.3,2.3,0,0,1-2.3-2.3V115.79A0,0,0,0,1,136,115.79Z"/><rect class="cls-2" x="18.6" y="-0.88" width="15.08" height="93.04" rx="5.53" transform="translate(-10.95 8.35) rotate(-15.05)"/><rect class="cls-2" x="147.39" y="-0.88" width="15.08" height="93.04" rx="5.53" transform="translate(292.7 129.94) rotate(-164.95)"/><rect class="cls-3" y="79.13" width="181.07" height="41.58" rx="5.43"/><rect class="cls-1" x="136.14" y="93.88" width="21.46" height="17.66" rx="4.92"/><rect class="cls-1" x="107.08" y="94.33" width="21.46" height="17.66" rx="5.13"/><circle class="cls-1" cx="29.46" cy="101.51" r="7.47"/><path class="cls-1" d="M104.56,60.73a18.29,18.29,0,0,0-25.82,0l-4.12-4.12a24.11,24.11,0,0,1,34.06,0Z"/><path class="cls-1" d="M113.83,51.47a31.36,31.36,0,0,0-44.36,0l-4.12-4.13a37.2,37.2,0,0,1,52.6,0Z"/><path class="cls-1" d="M123.22,42.07a44.66,44.66,0,0,0-63.14,0L56,38a50.48,50.48,0,0,1,71.38,0Z"/></g></g></svg>