<svg xmlns="http://www.w3.org/2000/svg" viewBox="0 0 181.07 164.39"><defs><style>.cls-1{fill:#7a7cc5;}.cls-2{fill:#e5deef;}.cls-3{fill:#7371a8;}.cls-4{fill:#313457;}.cls-5{fill:#25244c;}</style></defs><g id="Layer_2" data-name="Layer 2"><g id="Layer_1-2" data-name="Layer 1"><path class="cls-1" d="M31,0H149.61a13.14,13.14,0,0,1,13.14,13.14V116.85a0,0,0,0,1,0,0H17.86a0,0,0,0,1,0,0V13.14A13.14,13.14,0,0,1,31,0Z"/><path class="cls-2" d="M168.72,164.39H14.2c-12,0-18.56-16.21-10.94-26.95l12-16.92a8.28,8.28,0,0,1,6.7-3.67H158.4a8.32,8.32,0,0,1,6.95,4.05l13.24,20.58C184.67,150.93,178.87,164.39,168.72,164.39Z"/><rect class="cls-3" x="15.13" y="140.86" width="52.85" height="9.53"/><rect class="cls-3" x="71.93" y="140.86" width="94.46" height="9.53"/><rect class="cls-4" x="45.1" y="127.91" width="11.44" height="8.71"/><rect class="cls-4" x="64.13" y="127.91" width="71.89" height="8.71"/><rect class="cls-2" x="29.1" y="17.3" width="122.41" height="88.61" rx="2.02"/><path class="cls-5" d="M58.3,76.42l-3.17-3.69a.84.84,0,0,1,0-1.06L78.13,45A.57.57,0,0,1,79,45l3.17,3.68a.84.84,0,0,1,0,1.06l-23,26.73A.58.58,0,0,1,58.3,76.42Z"/><path class="cls-5" d="M77.29,80.48l-3.17-3.69a.84.84,0,0,1,0-1.06L104.86,40a.58.58,0,0,1,.91,0l3.17,3.69a.84.84,0,0,1,0,1.06L78.2,80.48A.58.58,0,0,1,77.29,80.48Z"/><path class="cls-5" d="M103.44,76.16l-3.17-3.69a.84.84,0,0,1,0-1.06l25.85-30a.57.57,0,0,1,.91,0l3.17,3.68a.84.84,0,0,1,0,1.06L104.35,76.16A.58.58,0,0,1,103.44,76.16Z"/></g></g></svg>