<svg xmlns="http://www.w3.org/2000/svg" viewBox="0 0 181.07 119.43"><defs><style>.cls-1{fill:#8e67a9;}.cls-2{fill:#4b458d;}.cls-3{fill:#8685c4;}.cls-4{fill:#8884c7;}.cls-5{fill:#77aaeb;}.cls-6{fill:#bcbcff;}.cls-7{fill:#f4839d;}.cls-8{fill:#50b7ef;}.cls-9{fill:#dbe0ff;}.cls-10{fill:#8d9cd5;}</style></defs><g id="Layer_2" data-name="Layer 2"><g id="Layer_1-2" data-name="Layer 1"><rect class="cls-1" x="59.47" y="91.02" width="16.61" height="18.06" rx="8.31"/><rect class="cls-1" x="100.77" y="91.02" width="18.06" height="18.06" rx="9.03" transform="translate(219.59 200.09) rotate(-180)"/><rect class="cls-1" x="83.55" y="73.92" width="13" height="9.63"/><path class="cls-2" d="M23.84,114.13H37.32s1-24.44,2.81-32.34c1.21-5.23,3.53-9.15,17.42-12.52s14.2-5.58,14.2-5.58L69.1,57s-21.43,3.33-27,6.78S29.3,72.48,27.77,84,23.84,114.13,23.84,114.13Z"/><path class="cls-2" d="M155.91,112.14H141.75s-1-24.43-2.95-32.34c-1.27-5.23-3.71-9.15-18.28-12.52s-14.92-5.57-14.92-5.57L108.38,55s22.5,3.33,28.4,6.78,13.4,8.75,15,20.31S155.91,112.14,155.91,112.14Z"/><rect class="cls-2" x="106.48" y="31.47" width="49.47" height="6.02" transform="translate(2.18 76.39) rotate(-32.72)"/><rect class="cls-2" x="28.5" y="33.14" width="44.58" height="6.02" transform="translate(33.57 -23.77) rotate(38.52)"/><path class="cls-3" d="M23.84,14.21H45.51a0,0,0,0,1,0,0v4.87a6,6,0,0,1-6,6H29.36a5.52,5.52,0,0,1-5.52-5.52V14.21A0,0,0,0,1,23.84,14.21Z"/><path class="cls-4" d="M137.17,14.21h21.67a0,0,0,0,1,0,0V17a8,8,0,0,1-8,8h-6.33a7.34,7.34,0,0,1-7.34-7.34v-3.5A0,0,0,0,1,137.17,14.21Z"/><ellipse class="cls-5" cx="36" cy="8.43" rx="36" ry="8.43"/><ellipse class="cls-5" cx="145.07" cy="8.43" rx="36" ry="8.43"/><circle class="cls-6" cx="89.45" cy="99.08" r="20.35"/><ellipse class="cls-7" cx="88.61" cy="34.07" rx="21.91" ry="17.22"/><ellipse class="cls-8" cx="89.93" cy="57.91" rx="19.14" ry="18.42"/><rect class="cls-1" x="69.1" y="51.29" width="41.41" height="9.15" rx="4.57"/><circle class="cls-9" cx="89.21" cy="99.08" r="8.07"/><rect class="cls-10" x="65.01" y="36.6" width="48.88" height="15.89" rx="3.41"/></g></g></svg>