<svg xmlns="http://www.w3.org/2000/svg" viewBox="0 0 181.07 174.74"><defs><style>.cls-1{fill:#5559a3;}.cls-2{fill:#c4bdff;}.cls-3{fill:#f4839d;}.cls-4{fill:#4abaed;}.cls-5{fill:#43bbf2;}</style></defs><g id="Layer_2" data-name="Layer 2"><g id="Layer_1-2" data-name="Layer 1"><path class="cls-1" d="M157,57.86s19.37,29.91,3.39,58.17l15.72,26s15.93-58.69-9.55-92.87Z"/><path class="cls-1" d="M24,57.86S4.66,87.77,20.63,116L4.92,142S-11,83.32,14.47,49.14Z"/><circle class="cls-2" cx="22.59" cy="135.6" r="19.94"/><circle class="cls-2" cx="158.48" cy="135.6" r="19.94"/><path class="cls-3" d="M14.51,36.8S82.06-46,167,36.8c0,0,10.17,28.32-20.82,23.24,0,0-56.16-60.51-108.46.61C37.75,60.65,3.86,71.9,14.51,36.8Z"/><rect class="cls-4" x="21.11" y="87.6" width="48.74" height="87.15" rx="24.37"/><rect class="cls-5" x="111.21" y="87.6" width="48.74" height="87.15" rx="24.37"/></g></g></svg>