<svg xmlns="http://www.w3.org/2000/svg" viewBox="0 0 181.07 146.22"><defs><style>.cls-1{fill:#4acadb;}.cls-2{fill:#5a9ce4;}.cls-3{fill:#e5deef;}.cls-4{fill:#3a4055;}</style></defs><g id="Layer_2" data-name="Layer 2"><g id="Layer_1-2" data-name="Layer 1"><polygon class="cls-1" points="71.72 114.37 53.18 141.45 128.98 142.31 108.26 112.35 109.89 87.44 71.72 114.37"/><rect class="cls-2" x="17.45" width="148.35" height="119.87" rx="10.96"/><rect class="cls-3" x="30.54" y="13.9" width="119.44" height="82.81" rx="4.1"/><rect class="cls-4" y="138.41" width="181.07" height="7.82"/><path class="cls-4" d="M81.48,38l2.41,2.56a1.12,1.12,0,0,1,0,1.51l-27.31,29a1,1,0,0,1-1.42,0l-2.41-2.55a1.12,1.12,0,0,1,0-1.51L80.06,38A1,1,0,0,1,81.48,38Z"/><path class="cls-4" d="M127,37.35l2.4,2.55a1.11,1.11,0,0,1,0,1.52l-27.3,29a1,1,0,0,1-1.43,0l-2.4-2.55a1.11,1.11,0,0,1,0-1.52l27.3-29A1,1,0,0,1,127,37.35Z"/><path class="cls-4" d="M109.72,33.47l2.4,2.55a1.12,1.12,0,0,1,0,1.51L72.23,79.89a1,1,0,0,1-1.42,0L68.4,77.33a1.12,1.12,0,0,1,0-1.51l39.89-42.35A1,1,0,0,1,109.72,33.47Z"/></g></g></svg>