<svg xmlns="http://www.w3.org/2000/svg" viewBox="0 0 181.07 96.41"><defs><style>.cls-1{fill:#7281ae;}.cls-2{fill:#c1acfc;}.cls-3{fill:#5f5aa2;}.cls-4{fill:#d6e8ff;}.cls-5{fill:#6ba1c9;}</style></defs><g id="Layer_2" data-name="Layer 2"><g id="Layer_1-2" data-name="Layer 1"><path class="cls-1" d="M121.43,75.39h31.83a0,0,0,0,1,0,0V93.83a2.57,2.57,0,0,1-2.57,2.57H124.21a2.77,2.77,0,0,1-2.77-2.77V75.39A0,0,0,0,1,121.43,75.39Z"/><path class="cls-1" d="M27.19,74.16H59a0,0,0,0,1,0,0V92.6a2.57,2.57,0,0,1-2.57,2.57H30a2.77,2.77,0,0,1-2.77-2.77V74.16A0,0,0,0,1,27.19,74.16Z"/><rect class="cls-2" width="181.07" height="81.88" rx="14.2"/><rect class="cls-3" x="26.88" y="20.39" width="30.59" height="11.12" rx="4.43"/><rect class="cls-3" x="26.88" y="35.77" width="30.59" height="11.12" rx="4.43"/><rect class="cls-3" x="26.88" y="51.16" width="30.59" height="11.12" rx="4.43"/><circle class="cls-4" cx="129.93" cy="40.32" r="29.2"/><circle class="cls-5" cx="130.52" cy="40.94" r="17.46"/><circle class="cls-4" cx="134.41" cy="34.7" r="8.28"/></g></g></svg>