<svg xmlns="http://www.w3.org/2000/svg" viewBox="0 0 181.07 122.84"><defs><style>.cls-1{fill:#3793f3;}.cls-2{fill:#e5deef;}.cls-3{fill:#314692;}</style></defs><g id="Layer_2" data-name="Layer 2"><g id="Layer_1-2" data-name="Layer 1"><path class="cls-1" d="M147.26,122.84H18.6A18.59,18.59,0,0,1,0,104.25V18.78A18.78,18.78,0,0,1,18.78,0h136a26.29,26.29,0,0,1,26.3,26.3v62Z"/><path class="cls-2" d="M33.06,13.32h81.09a13.34,13.34,0,0,1,13.34,13.34V93.73a13.34,13.34,0,0,1-13.34,13.34H31.24A13.34,13.34,0,0,1,17.9,93.73V28.48A15.16,15.16,0,0,1,33.06,13.32Z"/><path class="cls-3" d="M57.64,46.23H21.25V21.06A3.78,3.78,0,0,1,25,17.29H57.64ZM23.79,43.69H55.11V19.82H25a1.25,1.25,0,0,0-1.24,1.24Z"/><path class="cls-3" d="M56.74,104.62H24.2a3.45,3.45,0,0,1-3.44-3.44V76.9h36ZM23.3,79.44v21.74a.9.9,0,0,0,.9.91h30V79.44Z"/><path class="cls-3" d="M125.07,45.22H90.32V17.09H121.6a3.47,3.47,0,0,1,3.47,3.47ZM92.85,42.68h29.69V20.56a.94.94,0,0,0-.94-.94H92.85Z"/><path class="cls-3" d="M121.08,104.35H88.5V74.28h36V101A3.4,3.4,0,0,1,121.08,104.35Zm-30-2.54h30.05a.85.85,0,0,0,.86-.85V76.82H91Z"/><polygon class="cls-3" points="127.44 62.7 127.44 57.64 85.68 57.64 85.68 55.71 94.42 44.46 90.42 41.35 80.57 54.03 67.63 54.03 57.47 41.44 53.53 44.62 61.91 55.01 61.91 57.48 17.84 57.48 17.84 62.54 61.91 62.54 61.91 68.4 52.86 77.45 56.44 81.03 66.93 70.54 82.34 70.54 88.99 77.94 92.75 74.55 85.68 66.68 85.68 62.7 127.44 62.7"/></g></g></svg>