<svg xmlns="http://www.w3.org/2000/svg" viewBox="0 0 150.29 181.07"><defs><style>.cls-1{fill:#e5deef;}.cls-2{fill:#7a77b6;}.cls-3{fill:#f4839d;}.cls-4{fill:#dbe3ff;}.cls-5{fill:#4297fc;}.cls-6{fill:#6bacdd;}</style></defs><g id="Layer_2" data-name="Layer 2"><g id="Layer_1-2" data-name="Layer 1"><rect class="cls-1" x="41.19" width="80.12" height="55.23" rx="6.75"/><rect class="cls-2" y="77.86" width="20.82" height="27.16" rx="4.4"/><rect class="cls-3" x="14.03" y="48.44" width="136.25" height="132.63" rx="7.61"/><path class="cls-4" d="M21.19,48.42h25a0,0,0,0,1,0,0V181a0,0,0,0,1,0,0H22.06a8.42,8.42,0,0,1-8.42-8.42V56A7.55,7.55,0,0,1,21.19,48.42Z"/><rect class="cls-2" x="43" y="48.42" width="8.6" height="132.49" rx="1.42"/><circle class="cls-4" cx="94.38" cy="115.2" r="36.89"/><circle class="cls-5" cx="94.16" cy="114.53" r="21.73"/><rect class="cls-2" x="17.2" y="114.07" width="19.92" height="9.51" rx="3.28"/><rect class="cls-2" x="16.98" y="131.95" width="20.14" height="8.37" rx="3.03"/><rect class="cls-2" x="135.58" y="92.8" width="13.58" height="9.73" rx="3.37"/><rect class="cls-2" x="134.9" y="110" width="13.58" height="9.73" rx="3.07"/><rect class="cls-6" x="33.95" y="67.45" width="26.25" height="30.33" rx="1.88"/><circle class="cls-4" cx="101.22" cy="104.5" r="8.88"/></g></g></svg>