<svg xmlns="http://www.w3.org/2000/svg" viewBox="0 0 203.2 78.69"><defs><style>.cls-1{fill:#e5deef;}.cls-2{fill:#262e8d;}.cls-3{fill:#b3b1ed;}.cls-4{fill:#8787db;}</style></defs><g id="Layer_2" data-name="Layer 2"><g id="Layer_1-2" data-name="Layer 1"><path class="cls-1" d="M195.94,21.72s7.88,57.27-43.33,57c-46.06-.27-47.28-47.58-47.28-47.58S107.74,80,50.79,78.39C9,77.17,7.15,25.05,7.15,25.05L15.63,3.23,86,8.07l17,17.11L121.24,10.5l26.52,1.82,47.58.61Z"/><rect class="cls-2" x="36.34" y="26.87" width="16.35" height="17.88" rx="7.77"/><path class="cls-3" d="M8.81,21.41h33a2,2,0,0,1,2,2v23.1a2.21,2.21,0,0,1-2.21,2.21H8.46A6.47,6.47,0,0,1,2,42.22v-14A6.81,6.81,0,0,1,8.81,21.41Z"/><rect class="cls-2" x="27.76" y="30.81" width="8.18" height="6.67" rx="2.7"/><path class="cls-4" d="M200.66,15.17,187.71,3.77A8.72,8.72,0,0,0,181.1.71h-62a8.74,8.74,0,0,0-3.68.83,6.49,6.49,0,0,0-1,.55l-.26.14-.31.25a9.09,9.09,0,0,0-1.65,1.63l-9.71,10.51L89.31,3a8.73,8.73,0,0,0-6.6-3h-62a8.7,8.7,0,0,0-5.46,2,6.89,6.89,0,0,0-1.61,1.26L1.91,15.89A7.17,7.17,0,0,0,2.31,26h0a7.18,7.18,0,0,0,10.14-.4L20,17.5c.24,0,.48.08.73.08h62a9.2,9.2,0,0,0,1.58-.16L96.71,28.35a5.78,5.78,0,0,0,.71.51,6.13,6.13,0,0,0,.63.72,6.92,6.92,0,0,0,9.78-.39l10.18-11a9.28,9.28,0,0,0,1.06.1h62c.11,0,.21,0,.32,0l9.3,8.2a7.52,7.52,0,0,0,9.94-11.28Z"/><rect class="cls-2" x="140.84" y="24.63" width="6.06" height="36.28" transform="translate(81.19 -93.61) rotate(48.76)"/><rect class="cls-2" x="158.11" y="24.93" width="6.06" height="36.28" transform="translate(87.31 -106.5) rotate(48.76)"/></g></g></svg>