<svg xmlns="http://www.w3.org/2000/svg" viewBox="0 0 181.07 163.12"><defs><style>.cls-1{fill:#e5deef;}.cls-2{fill:#726fad;}.cls-3{fill:#c0d6f3;}.cls-4{fill:#29a1f3;}.cls-5{fill:#352a6e;}</style></defs><g id="Layer_2" data-name="Layer 2"><g id="Layer_1-2" data-name="Layer 1"><path class="cls-1" d="M30.39,103.92s2.52,59.21,60,59.2c58.12,0,58-56.68,58-56.68Z"/><path class="cls-1" d="M25.83,47.8S38,1.75,86.44.06c55.74-1.95,65.17,45.75,65.17,45.75Z"/><path class="cls-2" d="M77.88,27.5h25.84a6.44,6.44,0,0,1,6.44,6.44V43a0,0,0,0,1,0,0H70.7a0,0,0,0,1,0,0V34.69A7.19,7.19,0,0,1,77.88,27.5Z"/><path class="cls-2" d="M164.42,61.41h7.23a9.42,9.42,0,0,1,9.42,9.42V82.16a10.58,10.58,0,0,1-10.58,10.58h-6.07a0,0,0,0,1,0,0V61.41A0,0,0,0,1,164.42,61.41Z"/><path class="cls-2" d="M9.15,61.88H22a0,0,0,0,1,0,0V92.11a0,0,0,0,1,0,0H8.75A8.75,8.75,0,0,1,0,83.36V71A9.15,9.15,0,0,1,9.15,61.88Z"/><rect class="cls-3" x="12.33" y="38.84" width="155.35" height="76" rx="29.67"/><rect class="cls-4" x="24.09" y="50.18" width="131.84" height="53.74" rx="20.98"/><rect class="cls-5" x="75.93" y="58.43" width="6.3" height="36.81" rx="2.46" transform="translate(71.04 -33.13) rotate(41.64)"/><rect class="cls-5" x="95.98" y="57.8" width="6.3" height="36.81" rx="2.46" transform="translate(75.69 -46.61) rotate(41.64)"/><path class="cls-5" d="M109.72,133.06a6,6,0,0,1-2.89,5.35A32.3,32.3,0,0,1,90,143.07c-8.77,0-14.15-2.45-17-4.37a6,6,0,0,1-2.62-4.95v-5.37S77.62,134.88,90,135a31.29,31.29,0,0,0,19.52-6.61Z"/></g></g></svg>