<svg xmlns="http://www.w3.org/2000/svg" viewBox="0 0 181.07 126.75"><defs><style>.cls-1{fill:#423f9a;}.cls-2{fill:#afa5f8;}.cls-3{fill:#e5deef;}.cls-4{fill:#8a7eaa;}.cls-5{fill:#3ba2fa;}</style></defs><g id="Layer_2" data-name="Layer 2"><g id="Layer_1-2" data-name="Layer 1"><rect class="cls-1" x="81.93" y="104.19" width="14.25" height="19"/><rect class="cls-2" width="181.07" height="108.34" rx="8.71"/><rect class="cls-1" x="43.34" y="114.87" width="93.21" height="11.87" rx="4.92"/><rect class="cls-3" x="12.78" y="12.47" width="153.76" height="84" rx="7.91"/><rect class="cls-4" x="32.11" y="18.16" width="5.34" height="24.59" transform="translate(31.72 -15.67) rotate(45)"/><rect class="cls-4" x="37.79" y="20.59" width="5.34" height="37.13" rx="2.21" transform="translate(39.54 -17.14) rotate(45)"/><path class="cls-5" d="M113.11,48.94,80.92,30.36a6.38,6.38,0,0,0-9.58,5.53V73.05a6.38,6.38,0,0,0,9.58,5.53L113.11,60A6.39,6.39,0,0,0,113.11,48.94Z"/></g></g></svg>