<svg xmlns="http://www.w3.org/2000/svg" viewBox="0 0 181.07 117.22"><defs><style>.cls-1{fill:#4eb7e3;}.cls-2{fill:#e5deef;}.cls-3{fill:#2d66ad;}.cls-4{fill:#264d8f;}</style></defs><g id="Layer_2" data-name="Layer 2"><g id="Layer_1-2" data-name="Layer 1"><rect class="cls-1" x="34.25" y="11.76" width="103.34" height="67.39"/><path class="cls-1" d="M68.43,63.46c-10.12,28-32.55,58.2-50.09,51.85S-5.21,68.46,4.92,40.47,37.48-5,55,1.3,78.56,35.48,68.43,63.46Z"/><path class="cls-1" d="M177.1,42.24c9.08,28.34,2.05,68.6-15.71,74.3S121.86,91.2,112.78,62.86s-2-55.93,15.71-61.62S168,13.9,177.1,42.24Z"/><rect class="cls-2" x="40.7" y="30.52" width="9.96" height="36.33" rx="4.18"/><rect class="cls-2" x="40.57" y="30.52" width="9.96" height="36.33" rx="4.18" transform="translate(94.23 3.14) rotate(90)"/><rect class="cls-3" x="74.88" y="27.98" width="29.3" height="7.42" rx="3.11"/><rect class="cls-3" x="74.69" y="57.08" width="30.08" height="7.42" rx="3.11"/><rect class="cls-4" x="111.41" y="38.72" width="15.04" height="16.02" rx="3.64"/><rect class="cls-4" x="125.87" y="24.26" width="14.85" height="15.04" rx="3.53"/><rect class="cls-4" x="126.06" y="54.15" width="14.46" height="14.46" rx="3.44"/><rect class="cls-4" x="140.32" y="38.33" width="15.63" height="15.63" rx="3.46"/></g></g></svg>