<svg xmlns="http://www.w3.org/2000/svg" viewBox="0 0 181.07 179.86"><defs><style>.cls-1{fill:#352a6e;}.cls-2{fill:#f4839d;}.cls-3{fill:#e5deef;}</style></defs><g id="Layer_2" data-name="Layer 2"><g id="Layer_1-2" data-name="Layer 1"><rect class="cls-1" y="30.9" width="30.91" height="8.25" rx="2.14"/><rect class="cls-1" y="54" width="30.91" height="8.25" rx="2.14"/><rect class="cls-1" y="77.1" width="30.91" height="8.25" rx="2.14"/><rect class="cls-1" y="98.28" width="30.91" height="8.25" rx="2.14"/><rect class="cls-1" y="119.46" width="30.91" height="8.25" rx="2.14"/><rect class="cls-1" y="140.63" width="30.91" height="8.25" rx="2.14"/><rect class="cls-1" x="150.16" y="30.07" width="30.91" height="8.25" rx="2.14"/><rect class="cls-1" x="150.16" y="53.18" width="30.91" height="8.25" rx="2.14"/><rect class="cls-1" x="150.16" y="76.28" width="30.91" height="8.25" rx="2.14"/><rect class="cls-1" x="150.16" y="97.46" width="30.91" height="8.25" rx="2.14"/><rect class="cls-1" x="150.16" y="118.63" width="30.91" height="8.25" rx="2.14"/><rect class="cls-1" x="150.16" y="139.81" width="30.91" height="8.25" rx="2.14"/><rect class="cls-1" x="128.5" y="11.34" width="30.91" height="8.25" rx="2.14" transform="translate(158.17 -128.62) rotate(89.5)"/><rect class="cls-1" x="105.4" y="11.55" width="30.91" height="8.25" rx="2.14" transform="translate(135.48 -105.32) rotate(89.5)"/><rect class="cls-1" x="82.3" y="11.75" width="30.91" height="8.25" rx="2.14" transform="translate(112.78 -82.02) rotate(89.5)"/><rect class="cls-1" x="61.13" y="11.93" width="30.91" height="8.25" rx="2.14" transform="translate(91.97 -60.66) rotate(89.5)"/><rect class="cls-1" x="39.95" y="12.11" width="30.91" height="8.25" rx="2.14" transform="translate(71.16 -39.3) rotate(89.5)"/><rect class="cls-1" x="18.77" y="12.3" width="30.91" height="8.25" rx="2.14" transform="translate(50.35 -17.94) rotate(89.5)"/><rect class="cls-1" x="126.85" y="159.31" width="30.91" height="8.25" rx="2.14" transform="translate(304.5 19.71) rotate(89.5)"/><rect class="cls-1" x="103.75" y="159.51" width="30.91" height="8.25" rx="2.14" transform="translate(281.8 43.01) rotate(89.5)"/><rect class="cls-1" x="80.65" y="159.71" width="30.91" height="8.25" rx="2.14" transform="translate(259.1 66.31) rotate(89.5)"/><rect class="cls-1" x="59.48" y="159.89" width="30.91" height="8.25" rx="2.14" transform="translate(238.29 87.67) rotate(89.5)"/><rect class="cls-1" x="38.3" y="160.08" width="30.91" height="8.25" rx="2.14" transform="translate(217.48 109.02) rotate(89.5)"/><rect class="cls-1" x="17.12" y="160.26" width="30.91" height="8.25" rx="2.14" transform="matrix(0.01, 1, -1, 0.01, 196.67, 130.38)"/><rect class="cls-2" x="18.27" y="18.59" width="144.83" height="146.72" rx="10"/><rect class="cls-3" x="48.57" y="48.41" width="81.41" height="84.25" rx="3.25"/></g></g></svg>