<svg xmlns="http://www.w3.org/2000/svg" viewBox="0 0 176.35 181.07"><defs><style>.cls-1{fill:#a49bef;}.cls-2{fill:#d0daff;}.cls-3{fill:#32abed;}</style></defs><g id="Layer_2" data-name="Layer 2"><g id="Layer_1-2" data-name="Layer 1"><path class="cls-1" d="M159.19,180.64H18.88A18.88,18.88,0,0,1,0,161.76V15.45A14.16,14.16,0,0,1,14.16,1.29H137.3l39,39.9V163.48A17.16,17.16,0,0,1,159.19,180.64Z"/><path class="cls-2" d="M40.71,94h96.12a11.64,11.64,0,0,1,11.64,11.64v75.46a0,0,0,0,1,0,0H31.32a0,0,0,0,1,0,0V103.35A9.38,9.38,0,0,1,40.71,94Z"/><path class="cls-3" d="M30,1.12h107.7a0,0,0,0,1,0,0V43.34a8.57,8.57,0,0,1-8.57,8.57H37.87A7.83,7.83,0,0,1,30,44.08v-43A0,0,0,0,1,30,1.12Z"/><path class="cls-2" d="M89.68,0h30.89a0,0,0,0,1,0,0V27a4.79,4.79,0,0,1-4.79,4.79H95.06a5.38,5.38,0,0,1-5.38-5.38V0A0,0,0,0,1,89.68,0Z"/></g></g></svg>