<svg xmlns="http://www.w3.org/2000/svg" viewBox="0 0 181.07 109.21"><defs><style>.cls-1{fill:#f4839d;}.cls-2{fill:#e5deef;}.cls-3{fill:#644075;}.cls-4{fill:#42395d;}.cls-5{fill:#213362;}.cls-6{fill:#776fc0;}</style></defs><g id="Layer_2" data-name="Layer 2"><g id="Layer_1-2" data-name="Layer 1"><rect class="cls-1" width="157.52" height="109.21" rx="10.06"/><rect class="cls-2" x="36.94" y="10.96" width="107.18" height="84.04" rx="4.45"/><rect class="cls-3" x="15.83" y="20.3" width="13.8" height="19.49" rx="3.61"/><rect class="cls-3" x="15.43" y="70.64" width="13.8" height="19.49" rx="3.7"/><ellipse class="cls-2" cx="21.72" cy="55.25" rx="9.95" ry="8.93"/><polygon class="cls-4" points="173.83 7.79 166.05 16.64 175.59 27.3 181.07 16.64 173.83 7.79"/><rect class="cls-4" x="168.58" y="92.46" width="10.15" height="7.51"/><path class="cls-5" d="M101.3,81.51a9.7,9.7,0,0,1-2.69-.36c-3.62-1-5.8-2.82-6.5-5.37-.94-3.47,1.31-7.41,3-9.22A91.37,91.37,0,0,1,102.84,60c3.89-3.12,7.91-6.35,9.92-8.88,4.66-5.81,3.93-10.7,1.14-13s-8-2-12.22,3.17c-1.32,1.59-2.75,3.28-4.35,5.16-3,3.5-6.36,7.48-10.68,12.77a12.86,12.86,0,0,1-12,4.35c-2.88-.52-4.94-2.05-5.66-4.2-.6-1.79-.52-4.79,3.27-8.92,7.45-8.11,10.29-12.68,9.79-15.77-.22-1.43-1.26-2.64-3.16-3.7-5.29-3-17.67,11.25-22,17a.9.9,0,1,1-1.44-1.09c1.68-2.23,16.7-21.72,24.31-17.46,2.42,1.35,3.75,3,4.07,5,.6,3.76-2.27,8.6-10.25,17.28-2.49,2.72-3.52,5.25-2.89,7.12.51,1.5,2.06,2.6,4.27,3a11,11,0,0,0,10.23-3.71c4.33-5.31,7.86-9.46,10.7-12.8,1.59-1.88,3-3.56,4.34-5.15,5-6,11.22-6.29,14.75-3.41,3.37,2.75,4.54,8.77-.86,15.52-2.15,2.68-6.24,6-10.2,9.15a90.56,90.56,0,0,0-7.52,6.44c-1.39,1.45-3.34,4.76-2.6,7.48.51,1.9,2.28,3.28,5.24,4.11,9.1,2.56,23-12.38,23.15-12.53a.91.91,0,1,1,1.33,1.23C123,68.7,111.1,81.51,101.3,81.51Z"/><rect class="cls-6" x="166.05" y="16.65" width="15.02" height="77.14"/></g></g></svg>