<svg xmlns="http://www.w3.org/2000/svg" width="28.289" height="28.002" viewBox="0 0 28.289 28.002">
  <path id="Icon_awesome-search" data-name="Icon awesome-search" d="M27.9,24.209,22.4,18.757a1.332,1.332,0,0,0-.939-.383h-.9a11.245,11.245,0,0,0,2.431-7A11.433,11.433,0,0,0,11.493,0,11.433,11.433,0,0,0,0,11.375a11.52,11.52,0,0,0,18.566,8.968v.891a1.3,1.3,0,0,0,.387.93l5.509,5.452a1.33,1.33,0,0,0,1.873,0L27.9,26.069a1.309,1.309,0,0,0,.006-1.859ZM11.493,18.374a7,7,0,1,1,7.073-7A7.032,7.032,0,0,1,11.493,18.374Z"/>
</svg>
