<svg xmlns="http://www.w3.org/2000/svg" width="26.028" height="30.849" viewBox="0 0 26.028 30.849">
  <path id="Icon_metro-spoon-fork" data-name="Icon metro-spoon-fork" d="M9.319,1.928c-3.195,0-5.784,3.021-5.784,6.748a6.621,6.621,0,0,0,4.45,6.567L7.027,30.852a1.8,1.8,0,0,0,1.81,1.924H9.8a1.8,1.8,0,0,0,1.81-1.924l-.958-15.609A6.621,6.621,0,0,0,15.1,8.676c0-3.727-2.59-6.748-5.784-6.748Zm19.441,0-1.607,9.64H25.948l-.8-9.64h-.8l-.8,9.64H22.333l-1.607-9.64h-.8V14.46a.964.964,0,0,0,.964.964H23.4l-.947,15.428a1.8,1.8,0,0,0,1.81,1.924h.964a1.8,1.8,0,0,0,1.81-1.924l-.947-15.428H28.6a.964.964,0,0,0,.964-.964V1.928Z" transform="translate(-3.535 -1.928)"/>
</svg>
